<svg xmlns="http://www.w3.org/2000/svg" xmlns:xlink="http://www.w3.org/1999/xlink" width="138px" height="56px" viewBox="0 0 138 56" version="1.1">
    <title>Centime_logo_1440_full</title>
    <defs>
        <polygon id="path-1" points="0 0 17.6881197 0 17.6881197 19.8452834 0 19.8452834"/>
        <polygon id="path-3" points="0 36 138 36 138 0 0 0"/>
    </defs>
    <g id="Symbols" stroke="none" stroke-width="1" fill="none" fill-rule="evenodd">
        <g id="header_1440_about" transform="translate(-85.000000, -9.000000)">
            <g id="Centime_logo_1440_full" transform="translate(85.000000, 9.000000)">
                <path d="M5.375,55.15625 C6.05729167,55.15625 6.65364583,55.0611979 7.1640625,54.8710938 C7.67447917,54.6809896 8.10677083,54.4179688 8.4609375,54.0820312 C8.81510417,53.7460938 9.09244792,53.3476562 9.29296875,52.8867188 C9.49348958,52.4257812 9.625,51.9270833 9.6875,51.390625 L9.6875,51.390625 L8.1796875,51.390625 C8.1171875,51.7916667 8.02604167,52.1497396 7.90625,52.4648438 C7.78645833,52.7799479 7.61848958,53.0455729 7.40234375,53.2617188 C7.18619792,53.4778646 6.9140625,53.6432292 6.5859375,53.7578125 C6.2578125,53.8723958 5.85416667,53.9296875 5.375,53.9296875 C4.86979167,53.9296875 4.43229167,53.8242188 4.0625,53.6132812 C3.69270833,53.4023438 3.38802083,53.1132812 3.1484375,52.7460938 C2.90885417,52.3789062 2.73046875,51.9505208 2.61328125,51.4609375 C2.49609375,50.9713542 2.4375,50.4479167 2.4375,49.890625 L2.4375,49.890625 L2.4375,48.734375 C2.4375,48.1354167 2.50260417,47.5872396 2.6328125,47.0898438 C2.76302083,46.5924479 2.95703125,46.1679688 3.21484375,45.8164062 C3.47265625,45.4648438 3.79296875,45.1914062 4.17578125,44.9960938 C4.55859375,44.8007812 5.00260417,44.703125 5.5078125,44.703125 C5.9453125,44.703125 6.3203125,44.7630208 6.6328125,44.8828125 C6.9453125,45.0026042 7.20703125,45.1744792 7.41796875,45.3984375 C7.62890625,45.6223958 7.79427083,45.8932292 7.9140625,46.2109375 C8.03385417,46.5286458 8.12239583,46.8854167 8.1796875,47.28125 L8.1796875,47.28125 L9.6875,47.28125 C9.63020833,46.71875 9.5,46.2044271 9.296875,45.7382812 C9.09375,45.2721354 8.81901042,44.8710938 8.47265625,44.5351562 C8.12630208,44.1992188 7.70572917,43.9375 7.2109375,43.75 C6.71614583,43.5625 6.1484375,43.46875 5.5078125,43.46875 C4.8046875,43.46875 4.17057292,43.5950521 3.60546875,43.8476562 C3.04036458,44.1002604 2.55989583,44.4570312 2.1640625,44.9179688 C1.76822917,45.3789062 1.46354167,45.9335938 1.25,46.5820312 C1.03645833,47.2304688 0.9296875,47.953125 0.9296875,48.75 L0.9296875,48.75 L0.9296875,49.890625 C0.9296875,50.6875 1.03515625,51.4088542 1.24609375,52.0546875 C1.45703125,52.7005208 1.75651042,53.2539062 2.14453125,53.7148438 C2.53255208,54.1757812 3,54.53125 3.546875,54.78125 C4.09375,55.03125 4.703125,55.15625 5.375,55.15625 Z M14.1171875,55.15625 C14.3776042,55.15625 14.625,55.1289062 14.859375,55.0742188 C15.09375,55.0195312 15.3111979,54.9440104 15.5117188,54.8476562 C15.7122396,54.7513021 15.8971354,54.6393229 16.0664062,54.5117188 C16.2356771,54.3841146 16.3880208,54.25 16.5234375,54.109375 C16.5442708,54.28125 16.5703125,54.4466146 16.6015625,54.6054688 C16.6328125,54.7643229 16.6744792,54.8958333 16.7265625,55 L16.7265625,55 L18.2421875,55 L18.2421875,54.875 C18.1432292,54.6458333 18.0690104,54.3736979 18.0195312,54.0585938 C17.9700521,53.7434896 17.9453125,53.4427083 17.9453125,53.15625 L17.9453125,53.15625 L17.9453125,49.2265625 C17.9453125,48.7526042 17.8671875,48.3385417 17.7109375,47.984375 C17.5546875,47.6302083 17.3385417,47.3346354 17.0625,47.0976562 C16.7864583,46.8606771 16.4544271,46.6835938 16.0664062,46.5664062 C15.6783854,46.4492188 15.2552083,46.390625 14.796875,46.390625 C14.2864583,46.390625 13.8242188,46.4648438 13.4101562,46.6132812 C12.9960938,46.7617188 12.6432292,46.9544271 12.3515625,47.1914062 C12.0598958,47.4283854 11.8346354,47.6953125 11.6757812,47.9921875 C11.5169271,48.2890625 11.4375,48.5885417 11.4375,48.890625 L11.4375,48.890625 L12.890625,48.890625 C12.890625,48.7135417 12.9348958,48.5442708 13.0234375,48.3828125 C13.1119792,48.2213542 13.2356771,48.0794271 13.3945312,47.9570312 C13.5533854,47.8346354 13.7447917,47.7369792 13.96875,47.6640625 C14.1927083,47.5911458 14.4401042,47.5546875 14.7109375,47.5546875 C15.2994792,47.5546875 15.7447917,47.7044271 16.046875,48.0039062 C16.3489583,48.3033854 16.5,48.7057292 16.5,49.2109375 L16.5,49.2109375 L16.5,49.875 L15.0625,49.875 C14.484375,49.875 13.9609375,49.9348958 13.4921875,50.0546875 C13.0234375,50.1744792 12.6236979,50.3515625 12.2929688,50.5859375 C11.9622396,50.8203125 11.7083333,51.1106771 11.53125,51.4570312 C11.3541667,51.8033854 11.265625,52.203125 11.265625,52.65625 C11.265625,53.0052083 11.3333333,53.3320312 11.46875,53.6367188 C11.6041667,53.9414062 11.7955729,54.2057292 12.0429688,54.4296875 C12.2903646,54.6536458 12.5898438,54.8307292 12.9414062,54.9609375 C13.2929688,55.0911458 13.6848958,55.15625 14.1171875,55.15625 Z M14.328125,53.8984375 C14.0625,53.8984375 13.8294271,53.8606771 13.6289062,53.7851562 C13.4283854,53.7096354 13.2591146,53.6080729 13.1210938,53.4804688 C12.9830729,53.3528646 12.8802083,53.2005208 12.8125,53.0234375 C12.7447917,52.8463542 12.7109375,52.65625 12.7109375,52.453125 C12.7109375,51.9322917 12.9348958,51.5429688 13.3828125,51.2851562 C13.8307292,51.0273438 14.46875,50.8984375 15.296875,50.8984375 L15.296875,50.8984375 L16.5,50.8984375 L16.5,52.6328125 C16.421875,52.7942708 16.3138021,52.9505208 16.1757812,53.1015625 C16.0377604,53.2526042 15.875,53.3867188 15.6875,53.5039062 C15.5,53.6210938 15.2916667,53.7161458 15.0625,53.7890625 C14.8333333,53.8619792 14.5885417,53.8984375 14.328125,53.8984375 Z M23.3203125,55.15625 C23.8098958,55.15625 24.2552083,55.0950521 24.65625,54.9726562 C25.0572917,54.8502604 25.4010417,54.6796875 25.6875,54.4609375 C25.9739583,54.2421875 26.1940104,53.9791667 26.3476562,53.671875 C26.5013021,53.3645833 26.578125,53.0260417 26.578125,52.65625 C26.578125,52.3125 26.5169271,52.0104167 26.3945312,51.75 C26.2721354,51.4895833 26.0859375,51.2591146 25.8359375,51.0585938 C25.5859375,50.8580729 25.2708333,50.6822917 24.890625,50.53125 C24.5104167,50.3802083 24.0625,50.2447917 23.546875,50.125 C23.1458333,50.0364583 22.8190104,49.9492188 22.5664062,49.8632812 C22.3138021,49.7773438 22.1145833,49.6835938 21.96875,49.5820312 C21.8229167,49.4804688 21.7239583,49.3671875 21.671875,49.2421875 C21.6197917,49.1171875 21.59375,48.9765625 21.59375,48.8203125 C21.59375,48.6640625 21.625,48.5117188 21.6875,48.3632812 C21.75,48.2148438 21.8489583,48.0820312 21.984375,47.9648438 C22.1197917,47.8476562 22.2929688,47.7539062 22.5039062,47.6835938 C22.7148438,47.6132812 22.9713542,47.578125 23.2734375,47.578125 C23.5598958,47.578125 23.8125,47.6210938 24.03125,47.7070312 C24.25,47.7929688 24.4348958,47.9049479 24.5859375,48.0429688 C24.7369792,48.1809896 24.8515625,48.3372396 24.9296875,48.5117188 C25.0078125,48.6861979 25.046875,48.859375 25.046875,49.03125 L25.046875,49.03125 L26.5,49.03125 C26.5,48.6666667 26.4270833,48.3242188 26.28125,48.0039062 C26.1354167,47.6835938 25.9231771,47.4036458 25.6445312,47.1640625 C25.3658854,46.9244792 25.0273438,46.7356771 24.6289062,46.5976562 C24.2304688,46.4596354 23.7786458,46.390625 23.2734375,46.390625 C22.7994792,46.390625 22.3697917,46.4570312 21.984375,46.5898438 C21.5989583,46.7226562 21.2708333,46.9023438 21,47.1289062 C20.7291667,47.3554688 20.5195312,47.6184896 20.3710938,47.9179688 C20.2226562,48.2174479 20.1484375,48.5338542 20.1484375,48.8671875 C20.1484375,49.2161458 20.21875,49.5208333 20.359375,49.78125 C20.5,50.0416667 20.7018229,50.2669271 20.9648438,50.4570312 C21.2278646,50.6471354 21.546875,50.8098958 21.921875,50.9453125 C22.296875,51.0807292 22.71875,51.1979167 23.1875,51.296875 C23.6041667,51.3854167 23.9401042,51.4817708 24.1953125,51.5859375 C24.4505208,51.6901042 24.6471354,51.8033854 24.7851562,51.9257812 C24.9231771,52.0481771 25.015625,52.1783854 25.0625,52.3164062 C25.109375,52.4544271 25.1328125,52.6015625 25.1328125,52.7578125 C25.1328125,52.9296875 25.09375,53.0898438 25.015625,53.2382812 C24.9375,53.3867188 24.8216146,53.515625 24.6679688,53.625 C24.5143229,53.734375 24.3255208,53.8203125 24.1015625,53.8828125 C23.8776042,53.9453125 23.6171875,53.9765625 23.3203125,53.9765625 C23.0911458,53.9765625 22.8619792,53.9505208 22.6328125,53.8984375 C22.4036458,53.8463542 22.1927083,53.7578125 22,53.6328125 C21.8072917,53.5078125 21.6471354,53.3450521 21.5195312,53.1445312 C21.3919271,52.9440104 21.3203125,52.6953125 21.3046875,52.3984375 L21.3046875,52.3984375 L19.859375,52.3984375 C19.859375,52.7473958 19.9348958,53.0872396 20.0859375,53.4179688 C20.2369792,53.7486979 20.4583333,54.0429688 20.75,54.3007812 C21.0416667,54.5585938 21.4023438,54.765625 21.8320312,54.921875 C22.2617188,55.078125 22.7578125,55.15625 23.3203125,55.15625 Z M29.90625,55 L29.90625,48.9765625 C30.1041667,48.5703125 30.3802083,48.2421875 30.734375,47.9921875 C31.0885417,47.7421875 31.5,47.6171875 31.96875,47.6171875 C32.2447917,47.6171875 32.4882812,47.6510417 32.6992188,47.71875 C32.9101562,47.7864583 33.0872396,47.8932292 33.2304688,48.0390625 C33.3736979,48.1848958 33.4817708,48.3736979 33.5546875,48.6054688 C33.6276042,48.8372396 33.6640625,49.1171875 33.6640625,49.4453125 L33.6640625,49.4453125 L33.6640625,55 L35.109375,55 L35.109375,49.4609375 C35.109375,48.9088542 35.0455729,48.4388021 34.9179688,48.0507812 C34.7903646,47.6627604 34.609375,47.3450521 34.375,47.0976562 C34.140625,46.8502604 33.8567708,46.6705729 33.5234375,46.5585938 C33.1901042,46.4466146 32.8177083,46.390625 32.40625,46.390625 C31.8854167,46.390625 31.4140625,46.4947917 30.9921875,46.703125 C30.5703125,46.9114583 30.2083333,47.2005208 29.90625,47.5703125 L29.90625,47.5703125 L29.90625,43 L28.4609375,43 L28.4609375,55 L29.90625,55 Z M42.9609375,55 L42.9609375,49.9765625 L47.734375,49.9765625 L47.734375,48.75 L42.9609375,48.75 L42.9609375,44.859375 L48.5078125,44.859375 L48.5078125,43.625 L41.4609375,43.625 L41.4609375,55 L42.9609375,55 Z M51.6484375,55 L51.6484375,43 L50.203125,43 L50.203125,55 L51.6484375,55 Z M57.4296875,55.15625 C58.0234375,55.15625 58.5572917,55.0481771 59.03125,54.8320312 C59.5052083,54.6158854 59.9088542,54.3164062 60.2421875,53.9335938 C60.5755208,53.5507812 60.8307292,53.0976562 61.0078125,52.5742188 C61.1848958,52.0507812 61.2734375,51.4817708 61.2734375,50.8671875 L61.2734375,50.8671875 L61.2734375,50.6953125 C61.2734375,50.0807292 61.1848958,49.5117188 61.0078125,48.9882812 C60.8307292,48.4648438 60.5755208,48.0104167 60.2421875,47.625 C59.9088542,47.2395833 59.5039062,46.9375 59.0273438,46.71875 C58.5507812,46.5 58.0130208,46.390625 57.4140625,46.390625 C56.8255208,46.390625 56.2942708,46.5 55.8203125,46.71875 C55.3463542,46.9375 54.9440104,47.2395833 54.6132812,47.625 C54.2825521,48.0104167 54.0273438,48.4648438 53.8476562,48.9882812 C53.6679688,49.5117188 53.578125,50.0807292 53.578125,50.6953125 L53.578125,50.6953125 L53.578125,50.8671875 C53.578125,51.4817708 53.6679688,52.0507812 53.8476562,52.5742188 C54.0273438,53.0976562 54.2838542,53.5507812 54.6171875,53.9335938 C54.9505208,54.3164062 55.3541667,54.6158854 55.828125,54.8320312 C56.3020833,55.0481771 56.8359375,55.15625 57.4296875,55.15625 Z M57.4296875,53.9765625 C57.0286458,53.9765625 56.6783854,53.8932292 56.3789062,53.7265625 C56.0794271,53.5598958 55.8294271,53.3346354 55.6289062,53.0507812 C55.4283854,52.7669271 55.2786458,52.4375 55.1796875,52.0625 C55.0807292,51.6875 55.03125,51.2890625 55.03125,50.8671875 L55.03125,50.8671875 L55.03125,50.6953125 C55.03125,50.2786458 55.0807292,49.8815104 55.1796875,49.5039062 C55.2786458,49.1263021 55.4283854,48.7955729 55.6289062,48.5117188 C55.8294271,48.2278646 56.078125,48.0013021 56.375,47.8320312 C56.671875,47.6627604 57.0182292,47.578125 57.4140625,47.578125 C57.8151042,47.578125 58.1666667,47.6627604 58.46875,47.8320312 C58.7708333,48.0013021 59.0221354,48.2278646 59.2226562,48.5117188 C59.4231771,48.7955729 59.5742188,49.1263021 59.6757812,49.5039062 C59.7773438,49.8815104 59.828125,50.2786458 59.828125,50.6953125 L59.828125,50.6953125 L59.828125,50.8671875 C59.828125,51.2890625 59.7773438,51.6875 59.6757812,52.0625 C59.5742188,52.4375 59.4244792,52.7669271 59.2265625,53.0507812 C59.0286458,53.3346354 58.7786458,53.5598958 58.4765625,53.7265625 C58.1744792,53.8932292 57.8255208,53.9765625 57.4296875,53.9765625 Z M65.953125,55 L67.953125,48.59375 L70.0078125,55 L71.1796875,55 L73.640625,46.546875 L72.1953125,46.546875 L70.5703125,53.0078125 L68.5625,46.546875 L67.3984375,46.546875 L65.4296875,52.875 L63.765625,46.546875 L62.328125,46.546875 L64.78125,55 L65.953125,55 Z M80.796875,55 L80.796875,50.5703125 L80.6484375,45.8125 L84.375,55 L85.5234375,55 L89.2578125,45.7890625 L89.1171875,50.5703125 L89.1171875,55 L90.6171875,55 L90.6171875,43.625 L88.671875,43.625 L84.953125,52.90625 L81.234375,43.625 L79.296875,43.625 L79.296875,55 L80.796875,55 Z M95.6484375,55.15625 C95.9088542,55.15625 96.15625,55.1289062 96.390625,55.0742188 C96.625,55.0195312 96.8424479,54.9440104 97.0429688,54.8476562 C97.2434896,54.7513021 97.4283854,54.6393229 97.5976562,54.5117188 C97.7669271,54.3841146 97.9192708,54.25 98.0546875,54.109375 C98.0755208,54.28125 98.1015625,54.4466146 98.1328125,54.6054688 C98.1640625,54.7643229 98.2057292,54.8958333 98.2578125,55 L98.2578125,55 L99.7734375,55 L99.7734375,54.875 C99.6744792,54.6458333 99.6002604,54.3736979 99.5507812,54.0585938 C99.5013021,53.7434896 99.4765625,53.4427083 99.4765625,53.15625 L99.4765625,53.15625 L99.4765625,49.2265625 C99.4765625,48.7526042 99.3984375,48.3385417 99.2421875,47.984375 C99.0859375,47.6302083 98.8697917,47.3346354 98.59375,47.0976562 C98.3177083,46.8606771 97.9856771,46.6835938 97.5976562,46.5664062 C97.2096354,46.4492188 96.7864583,46.390625 96.328125,46.390625 C95.8177083,46.390625 95.3554688,46.4648438 94.9414062,46.6132812 C94.5273438,46.7617188 94.1744792,46.9544271 93.8828125,47.1914062 C93.5911458,47.4283854 93.3658854,47.6953125 93.2070312,47.9921875 C93.0481771,48.2890625 92.96875,48.5885417 92.96875,48.890625 L92.96875,48.890625 L94.421875,48.890625 C94.421875,48.7135417 94.4661458,48.5442708 94.5546875,48.3828125 C94.6432292,48.2213542 94.7669271,48.0794271 94.9257812,47.9570312 C95.0846354,47.8346354 95.2760417,47.7369792 95.5,47.6640625 C95.7239583,47.5911458 95.9713542,47.5546875 96.2421875,47.5546875 C96.8307292,47.5546875 97.2760417,47.7044271 97.578125,48.0039062 C97.8802083,48.3033854 98.03125,48.7057292 98.03125,49.2109375 L98.03125,49.2109375 L98.03125,49.875 L96.59375,49.875 C96.015625,49.875 95.4921875,49.9348958 95.0234375,50.0546875 C94.5546875,50.1744792 94.1549479,50.3515625 93.8242188,50.5859375 C93.4934896,50.8203125 93.2395833,51.1106771 93.0625,51.4570312 C92.8854167,51.8033854 92.796875,52.203125 92.796875,52.65625 C92.796875,53.0052083 92.8645833,53.3320312 93,53.6367188 C93.1354167,53.9414062 93.3268229,54.2057292 93.5742188,54.4296875 C93.8216146,54.6536458 94.1210938,54.8307292 94.4726562,54.9609375 C94.8242188,55.0911458 95.2161458,55.15625 95.6484375,55.15625 Z M95.859375,53.8984375 C95.59375,53.8984375 95.3606771,53.8606771 95.1601562,53.7851562 C94.9596354,53.7096354 94.7903646,53.6080729 94.6523438,53.4804688 C94.5143229,53.3528646 94.4114583,53.2005208 94.34375,53.0234375 C94.2760417,52.8463542 94.2421875,52.65625 94.2421875,52.453125 C94.2421875,51.9322917 94.4661458,51.5429688 94.9140625,51.2851562 C95.3619792,51.0273438 96,50.8984375 96.828125,50.8984375 L96.828125,50.8984375 L98.03125,50.8984375 L98.03125,52.6328125 C97.953125,52.7942708 97.8450521,52.9505208 97.7070312,53.1015625 C97.5690104,53.2526042 97.40625,53.3867188 97.21875,53.5039062 C97.03125,53.6210938 96.8229167,53.7161458 96.59375,53.7890625 C96.3645833,53.8619792 96.1197917,53.8984375 95.859375,53.8984375 Z M104.210938,55.15625 C104.471354,55.15625 104.692708,55.1380208 104.875,55.1015625 C105.057292,55.0651042 105.205729,55.03125 105.320312,55 L105.320312,55 L105.320312,53.828125 C105.247396,53.84375 105.144531,53.8632812 105.011719,53.8867188 C104.878906,53.9101562 104.752604,53.921875 104.632812,53.921875 C104.513021,53.921875 104.397135,53.9101562 104.285156,53.8867188 C104.173177,53.8632812 104.074219,53.8151042 103.988281,53.7421875 C103.902344,53.6692708 103.833333,53.5664062 103.78125,53.4335938 C103.729167,53.3007812 103.703125,53.125 103.703125,52.90625 L103.703125,52.90625 L103.703125,47.6640625 L105.28125,47.6640625 L105.28125,46.546875 L103.703125,46.546875 L103.703125,44.5 L102.257812,44.5 L102.257812,46.546875 L100.71875,46.546875 L100.71875,47.6640625 L102.257812,47.6640625 L102.257812,52.8984375 C102.257812,53.3203125 102.309896,53.6757812 102.414062,53.9648438 C102.518229,54.2539062 102.658854,54.4869792 102.835938,54.6640625 C103.013021,54.8411458 103.220052,54.9674479 103.457031,55.0429688 C103.69401,55.1184896 103.945312,55.15625 104.210938,55.15625 Z M109.4375,55.15625 C109.697917,55.15625 109.919271,55.1380208 110.101562,55.1015625 C110.283854,55.0651042 110.432292,55.03125 110.546875,55 L110.546875,55 L110.546875,53.828125 C110.473958,53.84375 110.371094,53.8632812 110.238281,53.8867188 C110.105469,53.9101562 109.979167,53.921875 109.859375,53.921875 C109.739583,53.921875 109.623698,53.9101562 109.511719,53.8867188 C109.39974,53.8632812 109.300781,53.8151042 109.214844,53.7421875 C109.128906,53.6692708 109.059896,53.5664062 109.007812,53.4335938 C108.955729,53.3007812 108.929688,53.125 108.929688,52.90625 L108.929688,52.90625 L108.929688,47.6640625 L110.507812,47.6640625 L110.507812,46.546875 L108.929688,46.546875 L108.929688,44.5 L107.484375,44.5 L107.484375,46.546875 L105.945312,46.546875 L105.945312,47.6640625 L107.484375,47.6640625 L107.484375,52.8984375 C107.484375,53.3203125 107.536458,53.6757812 107.640625,53.9648438 C107.744792,54.2539062 107.885417,54.4869792 108.0625,54.6640625 C108.239583,54.8411458 108.446615,54.9674479 108.683594,55.0429688 C108.920573,55.1184896 109.171875,55.15625 109.4375,55.15625 Z M115.703125,55.15625 C116.125,55.15625 116.502604,55.1106771 116.835938,55.0195312 C117.169271,54.9283854 117.464844,54.8059896 117.722656,54.6523438 C117.980469,54.4986979 118.205729,54.3242188 118.398438,54.1289062 C118.591146,53.9335938 118.755208,53.7317708 118.890625,53.5234375 L118.890625,53.5234375 L118.007812,52.8359375 C117.742188,53.1796875 117.432292,53.4557292 117.078125,53.6640625 C116.723958,53.8723958 116.291667,53.9765625 115.78125,53.9765625 C115.395833,53.9765625 115.050781,53.9036458 114.746094,53.7578125 C114.441406,53.6119792 114.18099,53.4140625 113.964844,53.1640625 C113.748698,52.9140625 113.582031,52.6197917 113.464844,52.28125 C113.347656,51.9427083 113.283854,51.578125 113.273438,51.1875 L113.273438,51.1875 L119,51.1875 L119,50.5390625 C119,49.9453125 118.932292,49.3958333 118.796875,48.890625 C118.661458,48.3854167 118.451823,47.9479167 118.167969,47.578125 C117.884115,47.2083333 117.523438,46.9179688 117.085938,46.7070312 C116.648438,46.4960938 116.127604,46.390625 115.523438,46.390625 C115.044271,46.390625 114.583333,46.4882812 114.140625,46.6835938 C113.697917,46.8789062 113.304688,47.1614583 112.960938,47.53125 C112.617188,47.9010417 112.342448,48.3567708 112.136719,48.8984375 C111.93099,49.4401042 111.828125,50.0546875 111.828125,50.7421875 L111.828125,50.7421875 L111.828125,51.0703125 C111.828125,51.6640625 111.919271,52.2109375 112.101562,52.7109375 C112.283854,53.2109375 112.544271,53.6419271 112.882812,54.0039062 C113.221354,54.3658854 113.628906,54.6484375 114.105469,54.8515625 C114.582031,55.0546875 115.114583,55.15625 115.703125,55.15625 Z M117.554688,50 L113.320312,50 C113.367188,49.609375 113.454427,49.2630208 113.582031,48.9609375 C113.709635,48.6588542 113.869792,48.40625 114.0625,48.203125 C114.255208,48 114.473958,47.8450521 114.71875,47.7382812 C114.963542,47.6315104 115.231771,47.578125 115.523438,47.578125 C115.893229,47.578125 116.203125,47.6458333 116.453125,47.78125 C116.703125,47.9166667 116.907552,48.09375 117.066406,48.3125 C117.22526,48.53125 117.342448,48.7786458 117.417969,49.0546875 C117.49349,49.3307292 117.539062,49.609375 117.554688,49.890625 L117.554688,49.890625 L117.554688,50 Z M122.117188,55 L122.117188,49 C122.273438,48.6302083 122.509115,48.3359375 122.824219,48.1171875 C123.139323,47.8984375 123.546875,47.7890625 124.046875,47.7890625 C124.182292,47.7890625 124.303385,47.7929688 124.410156,47.8007812 C124.516927,47.8085938 124.632812,47.8229167 124.757812,47.84375 L124.757812,47.84375 L124.757812,46.5 C124.705729,46.4739583 124.611979,46.4492188 124.476562,46.4257812 C124.341146,46.4023438 124.221354,46.390625 124.117188,46.390625 C123.648438,46.390625 123.25,46.4921875 122.921875,46.6953125 C122.59375,46.8984375 122.320312,47.1744792 122.101562,47.5234375 L122.101562,47.5234375 L122.078125,46.546875 L120.671875,46.546875 L120.671875,55 L122.117188,55 Z M129.195312,55.15625 C129.684896,55.15625 130.130208,55.0950521 130.53125,54.9726562 C130.932292,54.8502604 131.276042,54.6796875 131.5625,54.4609375 C131.848958,54.2421875 132.06901,53.9791667 132.222656,53.671875 C132.376302,53.3645833 132.453125,53.0260417 132.453125,52.65625 C132.453125,52.3125 132.391927,52.0104167 132.269531,51.75 C132.147135,51.4895833 131.960938,51.2591146 131.710938,51.0585938 C131.460938,50.8580729 131.145833,50.6822917 130.765625,50.53125 C130.385417,50.3802083 129.9375,50.2447917 129.421875,50.125 C129.020833,50.0364583 128.69401,49.9492188 128.441406,49.8632812 C128.188802,49.7773438 127.989583,49.6835938 127.84375,49.5820312 C127.697917,49.4804688 127.598958,49.3671875 127.546875,49.2421875 C127.494792,49.1171875 127.46875,48.9765625 127.46875,48.8203125 C127.46875,48.6640625 127.5,48.5117188 127.5625,48.3632812 C127.625,48.2148438 127.723958,48.0820312 127.859375,47.9648438 C127.994792,47.8476562 128.167969,47.7539062 128.378906,47.6835938 C128.589844,47.6132812 128.846354,47.578125 129.148438,47.578125 C129.434896,47.578125 129.6875,47.6210938 129.90625,47.7070312 C130.125,47.7929688 130.309896,47.9049479 130.460938,48.0429688 C130.611979,48.1809896 130.726562,48.3372396 130.804688,48.5117188 C130.882812,48.6861979 130.921875,48.859375 130.921875,49.03125 L130.921875,49.03125 L132.375,49.03125 C132.375,48.6666667 132.302083,48.3242188 132.15625,48.0039062 C132.010417,47.6835938 131.798177,47.4036458 131.519531,47.1640625 C131.240885,46.9244792 130.902344,46.7356771 130.503906,46.5976562 C130.105469,46.4596354 129.653646,46.390625 129.148438,46.390625 C128.674479,46.390625 128.244792,46.4570312 127.859375,46.5898438 C127.473958,46.7226562 127.145833,46.9023438 126.875,47.1289062 C126.604167,47.3554688 126.394531,47.6184896 126.246094,47.9179688 C126.097656,48.2174479 126.023438,48.5338542 126.023438,48.8671875 C126.023438,49.2161458 126.09375,49.5208333 126.234375,49.78125 C126.375,50.0416667 126.576823,50.2669271 126.839844,50.4570312 C127.102865,50.6471354 127.421875,50.8098958 127.796875,50.9453125 C128.171875,51.0807292 128.59375,51.1979167 129.0625,51.296875 C129.479167,51.3854167 129.815104,51.4817708 130.070312,51.5859375 C130.325521,51.6901042 130.522135,51.8033854 130.660156,51.9257812 C130.798177,52.0481771 130.890625,52.1783854 130.9375,52.3164062 C130.984375,52.4544271 131.007812,52.6015625 131.007812,52.7578125 C131.007812,52.9296875 130.96875,53.0898438 130.890625,53.2382812 C130.8125,53.3867188 130.696615,53.515625 130.542969,53.625 C130.389323,53.734375 130.200521,53.8203125 129.976562,53.8828125 C129.752604,53.9453125 129.492188,53.9765625 129.195312,53.9765625 C128.966146,53.9765625 128.736979,53.9505208 128.507812,53.8984375 C128.278646,53.8463542 128.067708,53.7578125 127.875,53.6328125 C127.682292,53.5078125 127.522135,53.3450521 127.394531,53.1445312 C127.266927,52.9440104 127.195312,52.6953125 127.179688,52.3984375 L127.179688,52.3984375 L125.734375,52.3984375 C125.734375,52.7473958 125.809896,53.0872396 125.960938,53.4179688 C126.111979,53.7486979 126.333333,54.0429688 126.625,54.3007812 C126.916667,54.5585938 127.277344,54.765625 127.707031,54.921875 C128.136719,55.078125 128.632812,55.15625 129.195312,55.15625 Z" id="CashFlowMatters" fill="#8B8B8B" fill-rule="nonzero"/>
                <path d="M134.092773,48 L134.092773,46.1660156 L134.757812,46.1660156 L134.757812,45.8671875 L133.065918,45.8671875 L133.065918,46.1660156 L133.725098,46.1660156 L133.725098,48 L134.092773,48 Z M136.893,46.358 L136.856934,47.296875 L136.856934,48 L137.226074,48 L137.226074,45.8671875 L136.74707,45.8671875 L136.133301,47.5019531 L135.518066,45.8671875 L135.037598,45.8671875 L135.037598,48 L135.406738,48 L135.406738,47.296875 L135.370117,46.3579102 L135.998535,48 L136.263672,48 L136.893,46.358 Z" id="TM" fill="#8B8B8B" fill-rule="nonzero"/>
                <g id="Logo*.svg">
                    <g id="Group-48" transform="translate(0.000000, 16.154717)">
                        <mask id="mask-2" fill="white">
                            <use xlink:href="#path-1"/>
                        </mask>
                        <g id="Clip-47"/>
                        <path d="M9.9323871,19.8454378 C4.45558528,19.8454378 -0.00025762274,15.3943051 -0.00025762274,9.92297629 C-0.00025762274,4.4516475 4.45558528,0 9.9323871,0 C12.8468732,0 15.6034365,1.27189928 17.4951602,3.48987339 L15.2257615,5.42114256 C13.9015806,3.8687151 11.972244,2.97848855 9.9323871,2.97848855 C6.09947598,2.97848855 2.98095272,6.09338071 2.98095272,9.92297629 C2.98095272,13.7520571 6.09947598,16.8669493 9.9323871,16.8669493 C12.054168,16.8669493 14.0327106,15.9172714 15.3612711,14.2603536 L17.6881197,16.1226489 C15.7907282,18.4883506 12.9640915,19.8454378 9.9323871,19.8454378" id="Fill-46" fill="#009B9A" mask="url(#mask-2)"/>
                    </g>
                    <path d="M34.2913642,24.825482 L23.3712515,24.825482 C23.8501722,21.5922018 26.0793818,19.3623889 28.8807714,19.3623889 C32.3527531,19.3623889 33.9386787,22.1275216 34.2913642,24.825482 M29.102327,16.5293118 C24.0253557,16.5293118 20.1965665,20.6821582 20.1965665,26.1897754 C20.1965665,31.6976501 24.1742616,35.8510112 29.4493448,35.8510112 C32.5668376,35.8510112 34.9158417,34.7829453 37.0657035,32.3873891 L37.2584053,32.1730038 L35.1667663,30.3014434 L34.9738069,30.5037325 C33.3804102,32.171717 31.6471244,32.9481881 29.5191606,32.9481881 C26.355811,32.9481881 23.9800141,30.7948127 23.5206727,27.5543262 L37.7071841,27.5543262 L37.7293397,27.2897547 C37.764634,26.8620136 37.764634,26.5791691 37.764634,26.3290101 C37.764634,20.4677729 34.2833779,16.5293118 29.102327,16.5293118" id="Fill-49" fill="#009B9A"/>
                    <path d="M50.6087506,16.5296721 C48.1546364,16.5296721 46.1866563,17.4896446 44.747318,19.3856547 L44.747318,16.9118595 L41.4948309,16.9118595 L41.4948309,35.433925 L44.747318,35.433925 L44.747318,24.8708813 C44.747318,21.7299952 46.8435942,19.5362134 49.8446415,19.5362134 C52.7753578,19.5362134 54.5248738,21.4522981 54.5248738,24.662158 L54.5248738,35.433925 L57.7776186,35.433925 L57.7776186,24.0035602 C57.7776186,19.4631217 54.9636054,16.5296721 50.6087506,16.5296721" id="Fill-51" fill="#009B9A"/>
                    <path d="M67.8852922,35.7552713 C68.7751211,35.7552713 69.7144136,35.6474353 70.9288472,35.4060266 L70.5802836,32.6210768 C69.9679144,32.7080663 69.5763278,32.7495021 69.0482012,32.7495021 C67.0091172,32.7495021 66.0590046,31.9570743 66.0590046,30.2558897 L66.0590046,19.9121212 L71.6040764,19.9121212 L71.6040764,16.9524203 L66.0590046,16.9524203 L66.0590046,13.0654323 L62.6929059,15.6789768 L62.6929059,29.8968651 C62.6929059,33.8389294 64.391155,35.7552713 67.8852922,35.7552713" id="Fill-53" fill="#009B9A"/>
                    <mask id="mask-4" fill="white">
                        <use xlink:href="#path-3"/>
                    </mask>
                    <g id="Clip-56"/>
                    <polygon id="Fill-55" fill="#009B9A" mask="url(#mask-4)" points="75.6429311 35.4340537 78.8954182 35.4340537 78.8954182 16.9117309 75.6429311 16.9117309"/>
                    <path d="M105.446353,16.5296721 C102.804431,16.5296721 100.741131,17.6113784 99.1544325,19.8334704 C97.9497886,17.6978531 95.908386,16.5296721 93.3545718,16.5296721 C90.5704428,16.5296721 88.9396909,17.8991128 87.8406723,19.3210561 L87.8406723,16.9118595 L84.5874123,16.9118595 L84.5874123,35.433925 L87.8406723,35.433925 L87.8406723,24.9053682 C87.8406723,21.7940792 89.8233369,19.5362134 92.555426,19.5362134 C95.2684511,19.5362134 96.8883829,21.4268189 96.8883829,24.5939562 L96.8883829,35.433925 L100.105318,35.433925 L100.105318,24.80165 C100.105318,21.1643063 102.456126,19.5362134 104.786066,19.5362134 C107.561178,19.5362134 109.153802,21.4046855 109.153802,24.662158 L109.153802,35.433925 L112.406289,35.433925 L112.406289,24.0377898 C112.406289,19.4067587 109.739378,16.5296721 105.446353,16.5296721" id="Fill-57" fill="#009B9A" mask="url(#mask-4)"/>
                    <path d="M130.298188,24.825482 L119.378848,24.825482 C119.857511,21.5929739 122.08569,19.3623889 124.888368,19.3623889 C128.359577,19.3623889 129.945502,22.1275216 130.298188,24.825482 M124.958184,16.5293118 C119.880697,16.5293118 116.052166,20.6821582 116.052166,26.1897754 C116.052166,31.6976501 120.030118,35.8510112 125.305974,35.8510112 C128.423725,35.8510112 130.771441,34.7829453 132.921045,32.3873891 L133.113232,32.1730038 L131.022365,30.3014434 L130.829921,30.5037325 C129.236267,32.171717 127.502724,32.9481881 125.374244,32.9481881 C122.210637,32.9481881 119.835356,30.7948127 119.376272,27.5543262 L133.56201,27.5543262 L133.584166,27.2897547 C133.619975,26.8620136 133.619975,26.5791691 133.619975,26.3290101 C133.619975,20.4677729 130.139235,16.5293118 124.958184,16.5293118" id="Fill-58" fill="#009B9A" mask="url(#mask-4)"/>
                    <polygon id="Fill-59" fill="#009B9A" mask="url(#mask-4)" points="134.048582 17.435881 133.237586 17.435881 133.237586 17.0382516 135.310676 17.0382516 135.310676 17.435881 134.500453 17.435881 134.500453 19.427631 134.048582 19.427631"/>
                    <polygon id="Fill-60" fill="#009B9A" mask="url(#mask-4)" points="135.730138 17.0383031 136.149032 17.0383031 136.812926 18.1665926 137.464969 17.0383031 137.884894 17.0383031 137.999794 19.4276825 137.558744 19.4276825 137.479911 17.7725663 136.906185 18.7466939 136.693904 18.7466939 136.117345 17.7977881 136.038512 19.4276825 135.615495 19.4276825"/>
                    <polygon id="Fill-45" fill="#F6BD3E" mask="url(#mask-4)" points="82.8633752 2.57365294e-05 67.8212987 11.6916163 73.8782669 11.6916163 78.8954698 7.79253212 78.8954698 11.6916163 82.8633752 11.6916163"/>
                </g>
            </g>
        </g>
    </g>
</svg>